# xmcd
#
# Track frame offsets:
#	150
#	9014
#	18516
#	26934
#	38668
#	50654
#	61247
#	71356
#	82893
#	89961
#	97215
#	108028
#	118847
#	128136
#	137603
#	146399
#	157742
#	166976
#	177460
#	186923
#
# Disc length: 2613 seconds
#
# Revision: 1
# Processed by: cddbd v1.5.2PL0 Copyright (c) Steve Scherf et al.
# Submitted via: audiograbber 1.83.01
#
DISCID=0a0a3314
DTITLE=Rock n Roll Cowboys - CD3
DYEAR=2014
DGENRE=Country
TTITLE0=Marvin Rainwater - So you Think You`ve got Troubles
TTITLE1=Johnny Cash - Smilin Bill McCall
TTITLE2=Bobber Bare - Sweet Singing 5 AM
TTITLE3=Hank Snow - The last Ride
TTITLE4=Guy Mitchell - Heartaches by the number
TTITLE5=Johnny Horton - She knows why
TTITLE6=Rusty and Doug Kershaw - Kaw-Liga
TTITLE7=Jiommy Skinner - John Wesley Hardin
TTITLE8=Don Gibson - Wo´nt cha come back
TTITLE9=Dolly Parton - Puppy love
TTITLE10=Sunny James - Kathaleen
TTITLE11=Tennessee Ernie Ford - Country junction
TTITLE12=Bob Luman - Red Hat
TTITLE13=Jim  Reeves - Billy Bajou
TTITLE14=Johnny and Jack - Lonely Island Pearl
TTITLE15=Mrty Robbins - A White Sport Coat
TTITLE16=Jimy Edwards - Love Bug Crawl
TTITLE17=Johnny Horton - The first train hending south
TTITLE18=Webb Pierce - A thousand Miles Ago
TTITLE19=Mitchell Totok - Red Light, Green Light
EXTD=
EXTT0=
EXTT1=
EXTT2=
EXTT3=
EXTT4=
EXTT5=
EXTT6=
EXTT7=
EXTT8=
EXTT9=
EXTT10=
EXTT11=
EXTT12=
EXTT13=
EXTT14=
EXTT15=
EXTT16=
EXTT17=
EXTT18=
EXTT19=
PLAYORDER=
